<?xml version="1.0" encoding="UTF-8"?>
<svg version="1.1" xmlns="http://www.w3.org/2000/svg" width="1024" height="1024">
  <defs>
    <mask id="textMask">
      <path d="M0 0 C3.375 1.5625 3.375 1.5625 6 4 C7.47590599 9.64243954 6.68060002 12.78696657 4.16015625 17.9609375 C3.84712555 18.61596756 3.53409485 19.27099762 3.21157837 19.94587708 C2.17840285 22.09735117 1.12075202 24.23576431 0.0625 26.375 C-0.66914806 27.88635879 -1.39918488 29.39849855 -2.12768555 30.91137695 C-4.02428825 34.84008169 -5.94110009 38.7585724 -7.86242676 42.67523193 C-9.6688885 46.3669543 -11.45549786 50.06821013 -13.2421875 53.76953125 C-15.92762172 59.32712873 -18.6179387 64.88231183 -21.31640625 70.43359375 C-21.6344371 71.08793396 -21.95246796 71.74227417 -22.28013611 72.41644287 C-24.18645042 76.33568508 -26.1044036 80.24903681 -28.02734375 84.16015625 C-40.05369006 108.75459526 -49.88067026 134.21192072 -59 160 C-59.33290039 160.94069336 -59.66580078 161.88138672 -60.00878906 162.85058594 C-63.26373732 172.12385276 -66.05706803 181.35351323 -68 191 C-56.79056571 179.89671565 -46.15287745 168.33402172 -36.46386719 155.87451172 C-35.52944639 154.67796687 -34.585656 153.48864103 -33.62988281 152.30908203 C-26.23016526 143.16841676 -21.8321864 133.30008556 -17.328125 122.48046875 C-10.11482001 105.22006037 -10.11482001 105.22006037 -5 101 C-0.93638564 99.64546188 2.81056698 98.95451057 6.82421875 100.87109375 C8.5 102.0625 8.5 102.0625 11 105 C10.73949986 110.06633075 9.32546696 114.03134411 7.19140625 118.59375 C6.60718609 119.86844626 6.02380813 121.14352877 5.44116211 122.41894531 C5.1345163 123.08333618 4.82787048 123.74772705 4.51193237 124.43225098 C-3.05202865 140.90564441 -8.95719732 157.59699774 -14 175 C-14.29793457 176.02738281 -14.59586914 177.05476562 -14.90283203 178.11328125 C-19.96537125 194.15340343 -19.96537125 194.15340343 -17 210 C-17.15706107 213.14122141 -17.78080314 214.69649666 -19.625 217.25 C-22.81210855 219.59839577 -25.06213119 219.93091458 -29 220 C-32.86715009 218.56106043 -35.33735417 216.15269454 -37.28125 212.484375 C-39.63837136 204.33693377 -38.37323677 194.2394206 -37 186 C-37.58394531 186.78310547 -37.58394531 186.78310547 -38.1796875 187.58203125 C-42.33469411 193.04864132 -46.79015896 198.11932221 -51.44921875 203.16015625 C-53.97200782 205.96883566 -56.33581279 208.85987057 -58.6875 211.8125 C-67.75149633 222.92782181 -67.75149633 222.92782181 -74.125 224 C-77.93040377 224 -79.80503535 223.98605911 -83 222 C-88.60803148 216.39196852 -90.07610503 211.16733577 -90.25 203.25 C-90.16063172 197.35169374 -89.26784685 191.75059109 -88 186 C-88.94359375 187.45019531 -88.94359375 187.45019531 -89.90625 188.9296875 C-109.1616271 218.31011754 -109.1616271 218.31011754 -121 222 C-126.95169402 222.90457526 -131.71801531 222.00348149 -137 219 C-142.91223088 213.08776912 -144.47079349 206.0475887 -145 198 C-145.38929688 198.46148438 -145.77859375 198.92296875 -146.1796875 199.3984375 C-163.09811537 219.12360916 -163.09811537 219.12360916 -173.1484375 220.23828125 C-179.91122356 220.46370745 -183.17743367 218.58063208 -188.1875 214 C-193.31442183 205.51406043 -193.40657266 196.55791544 -192 187 C-192.35449219 187.47566406 -192.70898438 187.95132813 -193.07421875 188.44140625 C-214.25410546 216.28808538 -214.25410546 216.28808538 -224 220 C-227.4609375 220.3359375 -227.4609375 220.3359375 -231.375 220.375 C-232.66148437 220.40335938 -233.94796875 220.43171875 -235.2734375 220.4609375 C-240.62228859 219.79933957 -243.6433139 217.51173594 -247.1875 213.5625 C-249.86452516 208.30076089 -250.87069824 202.76628324 -252 197 C-253.051875 198.16015625 -253.051875 198.16015625 -254.125 199.34375 C-256.59583463 202.06162437 -259.08150938 204.76537621 -261.57666016 207.4609375 C-262.7988707 208.78251816 -264.01525114 210.10948636 -265.23046875 211.4375 C-270.57509458 217.07015956 -275.64278387 221.07214252 -283.625 221.5 C-289.47123308 221.19864778 -292.60182233 218.36566191 -296.6875 214.375 C-301.82469193 207.77950843 -302.93510208 199.09020896 -302 191 C-300.24068844 179.96608704 -297.11622513 169.56035542 -292.90673828 159.234375 C-291.90589203 156.76810012 -290.9354329 154.29083124 -289.96484375 151.8125 C-272.85387401 108.56924934 -272.85387401 108.56924934 -263 102 C-258.93586992 101.54842999 -256.64853381 101.66222198 -253 103.5625 C-251 106 -251 106 -251.20874023 109.1862793 C-252.02330093 113.11230604 -253.19910045 116.73812026 -254.66015625 120.45703125 C-255.05836327 121.49401909 -255.05836327 121.49401909 -255.46461487 122.55195618 C-258.07582766 129.30493763 -260.83819827 135.99590268 -263.60995483 142.68414307 C-274.5939902 168.56924133 -274.5939902 168.56924133 -280 196 C-269.76766377 191.40201724 -263.4547291 181.251301 -256.75390625 172.546875 C-255.02964147 170.30744459 -253.27411114 168.1275912 -251.46484375 165.953125 C-246.23550955 159.5552708 -242.33713319 153.0754118 -238.625 145.6875 C-233.70445625 135.91523738 -227.93934745 127.43722822 -221 119 C-220.50935059 118.401875 -220.01870117 117.80375 -219.51318359 117.1875 C-217.19071852 114.37369973 -214.84081236 111.58731742 -212.44921875 108.83203125 C-210.98854168 107.14305059 -209.54629463 105.43740534 -208.14453125 103.69921875 C-203.41759248 97.91685897 -197.61277751 91.08420985 -189.97021484 89.60791016 C-180.63852459 88.69336684 -171.6296618 89.2761416 -164.125 95.3125 C-161.87422297 98.15907095 -160.89425768 100.50426545 -160 104 C-159.32453125 104.02578125 -158.6490625 104.0515625 -157.953125 104.078125 C-150.74925669 104.53617443 -150.74925669 104.53617443 -147.375 106.625 C-145.45828044 109.93569742 -145.74511406 112.19766707 -146 116 C-146.81094226 118.55128691 -147.66258583 120.88310563 -148.7109375 123.328125 C-149.29858716 124.76568326 -149.88555242 126.20352144 -150.47192383 127.64160156 C-150.78271881 128.39252075 -151.09351379 129.14343994 -151.41372681 129.91711426 C-157.00324241 143.48214586 -161.84145038 157.12559117 -165.8125 171.25 C-166.12764557 172.35970154 -166.12764557 172.35970154 -166.44915771 173.49182129 C-168.4672796 180.64122529 -170.19225596 187.60474497 -171 195 C-167.54588501 194.29920746 -167.54588501 194.29920746 -164 193 C-162.9491961 191.16494881 -162.9491961 191.16494881 -162 189 C-160.80175956 187.45468302 -159.56895591 185.93586687 -158.3125 184.4375 C-154.77651852 180.09585186 -151.73656723 175.62124036 -148.8359375 170.8359375 C-147.33115569 168.51152985 -145.76362228 166.4036604 -144.05859375 164.23046875 C-140.89625114 160.05916022 -138.79189238 155.70893283 -136.6875 150.9375 C-126.84336802 129.52011457 -112.09192109 103.13091878 -90.125 92.625 C-82.94624034 91.18924807 -76.47155876 91.07508139 -69.94921875 94.63671875 C-67.15248623 96.59275011 -64.59972505 98.78895035 -62 101 C-54.1868971 86.20225739 -46.60752815 71.3098266 -39.3125 56.25 C-38.95175385 55.50575775 -38.59100769 54.7615155 -38.21932983 53.99472046 C-34.68430547 46.69566825 -31.1722181 39.38673424 -27.72265625 32.046875 C-11.76538653 -1.89086569 -11.76538653 -1.89086569 0 0 Z " fill="white" transform="translate(820,334)"/>
      <path d="M0 0 C3.13660024 1.75757772 5.45445418 3.76342947 6.9375 7.125 C7.03624519 11.66727865 4.77279277 14.87485256 2.5625 18.75 C-5.23514105 32.69601433 -11.71746984 47.10789403 -17.3125 62.0625 C-17.59570099 62.81414429 -17.87890198 63.56578857 -18.17068481 64.34020996 C-24.06886836 80.0345316 -29.52616623 95.882506 -34.9375 111.75 C-35.33796539 112.91862579 -35.73843079 114.08725159 -36.15103149 115.29129028 C-40.76353823 128.78071912 -45.07953228 142.29255891 -48.79685974 156.05853271 C-49.05926956 157.02953918 -49.32167938 158.00054565 -49.59204102 159.00097656 C-49.92970238 160.27258636 -49.92970238 160.27258636 -50.27418518 161.56988525 C-51.03578303 164.11980587 -51.97641242 166.54478728 -53 169 C-51.97970703 168.69368652 -50.95941406 168.38737305 -49.90820312 168.07177734 C-43.88156328 166.3539016 -37.68721546 165.55596967 -31.5 164.625 C-30.79002869 164.51706116 -30.08005737 164.40912231 -29.34857178 164.2979126 C-13.18499475 161.85943614 3.04587666 160.23450412 19.31265259 158.66470337 C24.76422747 158.13436307 30.20106891 157.51847839 35.63867188 156.859375 C58.02309288 154.16563173 80.56595952 152.81584501 103.04989624 151.2232666 C104.99366398 151.07616045 106.93625438 150.91240956 108.87710571 150.73083496 C119.40200088 149.78335976 129.91802918 149.81678291 140.4765625 149.796875 C141.50214642 149.79404762 142.52773033 149.79122025 143.58439255 149.78830719 C149.03233844 149.77337692 154.48025836 149.76411355 159.92822266 149.75976562 C164.35343837 149.75541628 168.77845523 149.74165437 173.20361328 149.71875 C215.71339894 149.50337835 215.71339894 149.50337835 236.6484375 151.328125 C237.33228138 151.38660362 238.01612526 151.44508224 238.72069168 151.50533295 C272.9940801 154.54066832 272.9940801 154.54066832 281.125 162.6875 C283.50062855 165.66253483 284.45933539 167.55103901 284.125 171.375 C283 175 283 175 280 177 C275.39069768 177.29478096 271.52039737 176.77548679 267.078125 175.60546875 C256.43698171 173.22004641 245.61193017 172.88791173 234.75 172.3125 C233.61614868 172.24929565 232.48229736 172.18609131 231.31408691 172.12097168 C215.45882238 171.24528203 199.62977893 170.72570055 183.75 170.75 C182.90465698 170.75077545 182.05931396 170.7515509 181.18835449 170.75234985 C171.65022589 170.77798998 162.18002507 171.10876568 152.66503906 171.76367188 C148.36840625 172.04072627 144.078953 172.17899598 139.77539062 172.2902832 C74.03948017 173.99051881 7.21665767 178.51437583 -56.98364258 193.57617188 C-59 194 -59 194 -61 194 C-61.16145508 194.70092773 -61.32291016 195.40185547 -61.48925781 196.12402344 C-63.45392699 204.34015706 -66.00822519 212.26426836 -68.75 220.25 C-72.41806658 231.02511451 -75.82248615 241.83474977 -78.84277344 252.81347656 C-79.1009082 253.73612305 -79.35904297 254.65876953 -79.625 255.609375 C-79.84414063 256.41342773 -80.06328125 257.21748047 -80.2890625 258.04589844 C-81 260 -81 260 -83 262 C-87.51838204 262.77716171 -91.19766449 262.35659356 -95.375 260.5 C-98.75581829 257.28017305 -100.28876964 254.54910046 -101 250 C-101.14734568 239.13138302 -98.82031892 229.56356931 -95.5 219.3125 C-95.07786542 217.96989105 -94.65728662 216.62679194 -94.23828125 215.28320312 C-93.47638575 212.84210011 -92.70424046 210.40531828 -91.92382812 207.9699707 C-91.20344466 205.65404449 -90.55088912 203.36038683 -90 201 C-93.93983355 201.99094063 -97.87666248 202.99330756 -101.8125 204 C-103.0197876 204.3081665 -104.2270752 204.61633301 -105.47094727 204.93383789 C-111.82057604 206.57766294 -118.11556905 208.30551355 -124.3828125 210.24609375 C-125.56641357 210.61154297 -126.75001465 210.97699219 -127.96948242 211.35351562 C-130.22171378 212.05748657 -132.46963201 212.77546495 -134.7121582 213.50976562 C-142.84746633 216.04988811 -151.60643589 218.15824202 -159.5625 214.25 C-164.78747628 209.42694497 -164.78747628 209.42694497 -165.4375 205.0625 C-164.88886005 201.22202034 -163.62540749 199.81920888 -161 197 C-151.92387605 191.74977404 -140.73333005 189.18477874 -130.75 186.0625 C-129.91661102 185.80020599 -129.08322205 185.53791199 -128.22457886 185.26766968 C-96.21307743 175.21160225 -96.21307743 175.21160225 -80 173 C-79.66293533 172.09156593 -79.66293533 172.09156593 -79.31906128 171.16477966 C-76.95228333 164.78714918 -74.58283138 158.4105166 -72.21191406 152.03442383 C-71.330712 149.66357833 -70.45016262 147.29249013 -69.5703125 144.92114258 C-64.85773519 132.22128224 -60.14419723 119.53263832 -55 107 C-55.33 106.67 -55.66 106.34 -56 106 C-56.47308594 106.67804688 -56.94617188 107.35609375 -57.43359375 108.0546875 C-73.60354136 130.81239155 -73.60354136 130.81239155 -86.9375 133.125 C-92.79796843 133.45413707 -97.23631891 131.25430961 -102 128 C-106.70588879 123.41175843 -108.08872332 118.50372528 -108.375 112.0625 C-107.97945263 96.49042476 -100.55130849 81.30297121 -95 67 C-105.24461182 71.20568275 -108.70906336 78.66449212 -113.125 88.125 C-114.4274161 90.84218738 -115.74517701 93.5516392 -117.0703125 96.2578125 C-117.39299606 96.91931305 -117.71567963 97.5808136 -118.04814148 98.26235962 C-124.94717671 112.1633349 -136.3908387 131.13812121 -151 138 C-159.59122002 140.86374001 -168.05801034 138.83099181 -176 135 C-183.47855884 130.48464372 -186.68326771 122.36054837 -189.140625 114.22265625 C-195.05030138 88.68181158 -183.25425178 62.69074823 -170.34326172 41.24853516 C-166.78510914 35.66582621 -162.93969844 30.31719764 -159 25 C-158.09002354 23.72997004 -157.18111049 22.45917724 -156.2734375 21.1875 C-149.06319262 11.24987174 -141.35047757 3.65526533 -129 1 C-119.77651469 0.44686745 -111.15324829 4.37959063 -104 10 C-99.49446966 16.21452461 -99.81741356 22.22518448 -99.8125 29.625 C-99.80025391 30.57246094 -99.78800781 31.51992188 -99.77539062 32.49609375 C-99.76226323 38.89350874 -100.50110541 44.78192282 -102 51 C-99.77769244 49.85535939 -97.57496358 48.68629827 -95.375 47.5 C-94.75753906 47.18546875 -94.14007813 46.8709375 -93.50390625 46.546875 C-83.67733151 41.1681183 -79.09698995 30.26261854 -73.76757812 20.86914062 C-70.91702088 15.93561392 -68.30334234 11.75861546 -64 8 C-63.67 7.67 -63.34 7.34 -63 7 C-58.81753589 6.5079454 -55.93220148 6.61092751 -52.5 9.0625 C-50 12 -50 12 -50.046875 15.1484375 C-51.21767686 19.87962863 -53.26786428 23.407434 -55.75 27.5625 C-70.39062552 53.21398454 -80.470783 81.51533989 -88 110 C-82.48778316 108.814505 -80.0173879 107.6286182 -76.4375 103.0625 C-76.02677246 102.54526367 -75.61604492 102.02802734 -75.19287109 101.49511719 C-73.76974407 99.68158403 -72.38176262 97.84523928 -71 96 C-70.4642334 95.28505371 -69.9284668 94.57010742 -69.37646484 93.83349609 C-66.39222962 89.83262515 -63.43890111 85.81054156 -60.50390625 81.7734375 C-58.36928769 78.84452871 -56.20381384 75.95142941 -53.96484375 73.1015625 C-40.7685608 56.24099599 -30.35178021 37.66527995 -21.46484375 18.2265625 C-19.71019654 14.45732034 -17.90691805 10.72026693 -16.00390625 7.0234375 C-15.54959229 6.13317871 -15.09527832 5.24291992 -14.62719727 4.32568359 C-10.84706279 -1.07710126 -6.11397373 -1.95838221 0 0 Z " fill="white" transform="translate(457,424)"/>
      <path d="M0 0 C3.62966914 2.09788216 6.82839266 4.89937431 8 9 C8.45233619 16.02736583 6.96354518 22.05463131 5.125 28.8125 C4.65743286 30.56989502 4.65743286 30.56989502 4.18041992 32.36279297 C-0.9318767 51.4081167 -6.43507357 70.34874843 -12.02734375 89.2578125 C-20.30691923 117.26997853 -28.3565884 145.31307427 -34 174 C-34.19609863 174.9801709 -34.39219727 175.9603418 -34.59423828 176.97021484 C-39.58145964 201.09631828 -39.58145964 201.09631828 -36 225 C-35.93126837 228.29911811 -36.3226127 230.14706444 -38.38671875 232.74609375 C-41.40919209 235.68706219 -43.24103193 236.91868199 -47.5 237.375 C-52.97501566 235.22410099 -56.45838863 231.46675201 -58.85375977 226.08007812 C-61.04918629 220.1908318 -61.5065476 214.74799193 -61.4375 208.5 C-61.42920166 207.49936523 -61.42090332 206.49873047 -61.41235352 205.46777344 C-61.15667897 193.7667962 -59.19653446 182.46991505 -57 171 C-56.76394043 169.73768555 -56.52788086 168.47537109 -56.28466797 167.17480469 C-52.90522842 149.14734897 -49.00412204 131.24457984 -44.875 113.375 C-44.66921326 112.47888 -44.46342651 111.58276001 -44.25140381 110.65948486 C-41.55965963 98.97626693 -38.52094586 87.46124727 -35 76 C-38.9684578 83.93054 -42.93302694 91.86298855 -46.88739014 99.80056763 C-48.74155439 103.52171833 -50.59751376 107.2419725 -52.45361328 110.9621582 C-53.39834638 112.85665476 -54.34236132 114.75150963 -55.28564453 116.64672852 C-60.62281555 127.36834318 -66.03635143 138.03786762 -71.64338684 148.62106323 C-74.57780034 154.16850014 -77.39963365 159.75388095 -80.0625 165.4375 C-80.46678223 166.29093994 -80.87106445 167.14437988 -81.28759766 168.02368164 C-83.40422279 172.5150268 -85.46918022 177.02648098 -87.48828125 181.5625 C-87.88974365 182.46427979 -88.29120605 183.36605957 -88.70483398 184.29516602 C-89.46158533 186.00397466 -90.21278722 187.7152564 -90.95727539 189.42944336 C-95.74366097 200.28829453 -95.74366097 200.28829453 -99.8125 203.375 C-104.09562557 204.59875016 -107.68229565 204.59895652 -111.75 202.75 C-115.06169787 200.17423499 -116.67446761 197.97659717 -118 194 C-120.33582514 167.55201577 -114.81398875 140.02641725 -110.66333008 113.97290039 C-109.50701295 106.65754694 -108.54109363 99.38789828 -108 92 C-111.76677622 100.1038225 -111.76677622 100.1038225 -115.52856445 108.20996094 C-116.13492408 109.51758012 -116.74128806 110.82519729 -117.34765625 112.1328125 C-117.65363235 112.79269165 -117.95960846 113.4525708 -118.27485657 114.13244629 C-120.23629622 118.36036148 -122.2074228 122.58363113 -124.18359375 126.8046875 C-134.9910293 149.93859209 -144.32161788 173.14266223 -152.23828125 197.40625 C-152.58731003 198.47161484 -152.58731003 198.47161484 -152.94338989 199.5585022 C-154.13254258 203.21723695 -155.26627906 206.88350326 -156.32568359 210.58203125 C-156.5412944 211.31885132 -156.75690521 212.05567139 -156.97904968 212.81481934 C-157.38617691 214.21471896 -157.78065046 215.61838279 -158.16023254 217.02600098 C-158.98317242 219.83252102 -159.53361734 221.6454128 -161.90356445 223.44726562 C-166.60774647 224.68754373 -170.69988773 223.67831944 -174.875 221.5 C-178.82054754 216.85817937 -179.09737681 212.00318014 -178.80859375 206.0625 C-177.98360964 199.53048006 -175.79171483 193.4001732 -173.6875 187.1875 C-173.3596199 186.21148834 -173.3596199 186.21148834 -173.02511597 185.21575928 C-168.15913101 170.78937492 -162.26778238 156.8740186 -156 143 C-155.50790039 141.9083252 -155.01580078 140.81665039 -154.50878906 139.69189453 C-151.38121889 132.77487307 -148.20586925 125.88102801 -145 119 C-144.47229004 117.86353027 -143.94458008 116.72706055 -143.40087891 115.55615234 C-131.78073548 90.55628729 -119.79246763 65.88575731 -106 42 C-105.54125488 41.1961084 -105.08250977 40.3922168 -104.60986328 39.56396484 C-92.44189039 18.27354264 -92.44189039 18.27354264 -84 14 C-79.05975299 13.28286737 -76.13231835 13.41820415 -72 16.3125 C-69.98976688 18.34178501 -69.07709302 19.52416294 -68.6157074 22.37194824 C-68.70571943 29.317352 -69.78811896 35.52635362 -71.59765625 42.21875 C-71.86756378 43.26317764 -72.13747131 44.30760529 -72.41555786 45.38368225 C-72.99096571 47.60919456 -73.57167836 49.83334114 -74.15731812 52.05618286 C-75.68849263 57.88162537 -77.16989999 63.7196038 -78.6484375 69.55859375 C-78.94153305 70.71495834 -79.2346286 71.87132294 -79.53660583 73.06272888 C-84.81342607 94.03416239 -89.585329 115.37574323 -91 137 C-90.72027344 136.45512939 -90.44054687 135.91025879 -90.15234375 135.34887695 C-79.09654334 113.86605257 -67.48326686 92.69853213 -55.43969727 71.75390625 C-51.55235801 64.99034354 -47.73899323 58.18712356 -43.9375 51.375 C-14.06953575 -2.04647793 -14.06953575 -2.04647793 0 0 Z " fill="white" transform="translate(289,358)"/>
      <path d="M0 0 C4.69711281 2.43553997 8.50295686 4.65935637 10.375 9.75 C12.57487975 27.02505982 7.42237789 43.09608145 -1.625 57.75 C-3.68813332 59.72253665 -4.88952741 60.62094538 -7.6953125 61.11328125 C-13.40277778 60.97222222 -13.40277778 60.97222222 -15.625 58.75 C-17.15074309 49.75043389 -14.02132289 41.45139917 -11.125 33.0625 C-10.68989994 31.7641757 -10.25629572 30.46534912 -9.82421875 29.16601562 C-8.77235387 26.02210837 -7.70577666 22.88406069 -6.625 19.75 C-12.53063901 21.84003094 -15.8840378 24.52396108 -20 29.1875 C-20.56235352 29.81148682 -21.12470703 30.43547363 -21.70410156 31.07836914 C-28.83553531 39.09257745 -35.06593748 47.59765178 -40.75 56.6875 C-41.1531543 57.31454834 -41.55630859 57.94159668 -41.97167969 58.58764648 C-43.6350952 61.33523926 -44.63117208 63.2651489 -44.58984375 66.51171875 C-41.76475691 73.06546272 -32.87446625 75.58520084 -26.6875 78.1875 C-15.25166313 83.02997625 -7.30419142 88.39161715 -1.625 99.75 C-0.92756743 107.18165859 -0.96097716 113.68038123 -5.625 119.75 C-13.72615179 129.00051428 -28.27614447 138.05938287 -40.625 139.75 C-53.3777416 140.57453071 -63.54751922 140.04351996 -73.625 131.75 C-78.61984006 126.907508 -82.7174294 121.68465792 -82.9375 114.5 C-82.625 110.75 -82.625 110.75 -80.625 108.75 C-73.54232757 107.91674442 -69.26648531 110.71692547 -63.89453125 114.8515625 C-60.12257181 117.0417325 -57.13000154 117.44371115 -52.875 117.375 C-51.81829102 117.36351929 -51.81829102 117.36351929 -50.74023438 117.35180664 C-44.14859771 117.07312723 -39.73583562 114.91505821 -34.625 110.75 C-33.83867187 110.13898438 -33.05234375 109.52796875 -32.2421875 108.8984375 C-29.27943886 106.48306178 -29.27943886 106.48306178 -26.625 103.75 C-26.625 102.76 -26.625 101.77 -26.625 100.75 C-27.20354736 100.47438232 -27.78209473 100.19876465 -28.37817383 99.91479492 C-40.04676533 94.28308291 -50.50949712 89.15901456 -58.625 78.75 C-59.13289063 78.10933594 -59.64078125 77.46867187 -60.1640625 76.80859375 C-64.09097947 70.62436737 -63.44198287 62.74451999 -62.625 55.75 C-57.06741297 35.29021059 -38.27903757 13.69485817 -20.0546875 3.05078125 C-18.85199219 2.40689453 -18.85199219 2.40689453 -17.625 1.75 C-16.96757812 1.39292969 -16.31015625 1.03585937 -15.6328125 0.66796875 C-10.16981659 -1.99068926 -5.67341214 -1.95634902 0 0 Z " fill="white" transform="translate(514.625,417.25)"/>
      <path d="M0 0 C4.11578804 2.45364287 6.89830162 4.73694917 9.25 8.9375 C10.70108361 16.6648849 8.07919734 22.79266911 4.625 29.5625 C4.19832031 30.45195312 3.77164063 31.34140625 3.33203125 32.2578125 C-4.5120858 48.18019935 -4.5120858 48.18019935 -11.75 50.9375 C-14.47058856 51.15616413 -17.0112383 51.07675907 -19.75 50.9375 C-19.41226277 43.60860216 -17.76878669 37.0333918 -15.58984375 30.0390625 C-14.57575448 26.82955024 -14.57575448 26.82955024 -14.75 22.9375 C-23.24522148 28.80091656 -31.27270277 34.7829638 -38.75 41.9375 C-39.38421875 42.52015625 -40.0184375 43.1028125 -40.671875 43.703125 C-45.34918618 48.13208337 -49.81541319 53.17451208 -52.75 58.9375 C-52.6359741 61.60471462 -52.06514367 62.6010739 -50.24609375 64.54296875 C-45.32826608 68.32232398 -40.25360629 71.37259868 -34.8125 74.3125 C-27.91949398 78.05455486 -22.23846395 82.27651066 -16.75 87.9375 C-16.20730469 88.45957031 -15.66460938 88.98164063 -15.10546875 89.51953125 C-11.36446532 93.43303051 -10.25438389 97.69190753 -9.75 102.9375 C-10.13847737 110.5775549 -13.26998575 116.64688716 -18.75 121.9375 C-25.51776714 127.56251302 -32.52591749 131.81802043 -40.75 134.9375 C-41.5646875 135.2571875 -42.379375 135.576875 -43.21875 135.90625 C-54.24876399 139.58292133 -70.15458013 140.21521858 -80.75 134.9375 C-87.34060002 131.27866155 -90.605026 126.68637124 -93.75 119.9375 C-94.08 119.2775 -94.41 118.6175 -94.75 117.9375 C-95.00860135 113.88607881 -95.05441554 112.39412331 -92.75 108.9375 C-88.66934391 107.17539851 -85.17715238 106.46652634 -80.75 106.9375 C-76.62773532 108.84781778 -73.89390433 111.70862529 -70.75 114.9375 C-65.18745121 117.71877439 -57.37921444 114.68736329 -51.875 112.875 C-45.55436757 110.52378006 -40.52658219 107.45238097 -35.078125 103.51171875 C-32.75 101.9375 -32.75 101.9375 -30.75 101.9375 C-33.69302749 97.82877458 -36.92489135 95.22871745 -41.1875 92.625 C-41.79859619 92.23965088 -42.40969238 91.85430176 -43.03930664 91.45727539 C-46.09939473 89.53620916 -49.18735331 87.6725169 -52.3125 85.859375 C-59.88122135 81.40924717 -67.53010854 76.53372399 -70.75 67.9375 C-72.03988701 54.87569679 -70.37526657 46.53889688 -62.02368164 36.18017578 C-59.67691777 33.3611098 -57.22729737 30.64189683 -54.75 27.9375 C-53.44675781 26.50857422 -53.44675781 26.50857422 -52.1171875 25.05078125 C-39.37144003 11.71530516 -19.70027483 -5.58174453 0 0 Z " fill="white" transform="translate(906.75,417.0625)"/>
      <path d="M0 0 C4.98669007 2.49334503 8.49675474 5.99350949 11 11 C11.82037227 17.48228579 10.8447383 22.67565395 7 28 C2.82232764 32.37153187 -1.3341258 35.66070692 -7.4375 36.4375 C-11 36 -11 36 -13.8125 33.875 C-18.43788316 27.795925 -18.82361684 21.42259566 -18 14 C-15.16994028 3.56962526 -11.35067097 -1.77803232 0 0 Z " fill="white" transform="translate(578,394)"/>
      <path d="M0 0 C2.6875 1.6875 2.6875 1.6875 4.6875 4.6875 C5.71944201 12.74200844 4.76419331 21.25081907 0.0703125 28.01953125 C-3.21034876 31.92675656 -6.09185231 35.14653183 -11.3125 36.0234375 C-14.96557296 36.09478658 -16.73520352 36.11677174 -19.75 33.875 C-23.56182799 28.53844081 -22.81634873 21.95761759 -22.3125 15.6875 C-20.80466009 9.13167429 -18.71040459 3.8397343 -13.3125 -0.3125 C-8.51877521 -1.91040826 -4.71060878 -1.86646763 0 0 Z " fill="white" transform="translate(846.3125,386.3125)"/>
      
      <path d="M0 0 C1.57549033 1.57549033 1.24617765 3.12386255 1.3125 5.3125 C0.83297571 29.69973535 -21.26158944 59.49982706 -37 77 C-38.19109375 78.36898437 -38.19109375 78.36898437 -39.40625 79.765625 C-46.41042994 87.72492038 -46.41042994 87.72492038 -50 90 C-53.25 90.1875 -53.25 90.1875 -56 90 C-57.42887181 74.72694801 -50.1257973 61.03142383 -43 48 C-42.66516602 47.38688965 -42.33033203 46.7737793 -41.98535156 46.14208984 C-15.92654035 -0.81674566 -15.92654035 -0.81674566 0 0 Z " fill="black" transform="translate(644,442)"/>
      <path d="M0 0 C2.4375 1.5625 2.4375 1.5625 4 4 C3.63798381 9.18889873 2.21696204 13.65707195 0.125 18.375 C-0.32866943 19.40330933 -0.32866943 19.40330933 -0.79150391 20.45239258 C-4.65207219 28.85060464 -9.79039701 36.39446669 -15 44 C-15.80928666 45.20265902 -16.61791665 46.40576028 -17.42578125 47.609375 C-24.50041354 58.07711269 -32.12344863 67.37166816 -41.16479492 76.17944336 C-44.65986243 79.58498285 -44.65986243 79.58498285 -47.66796875 83.4140625 C-48.32732422 84.19910156 -48.32732422 84.19910156 -49 85 C-50.32 85 -51.64 85 -53 85 C-54.43508076 69.66058124 -47.06153677 56.11143958 -40 43 C-39.67628418 42.39269043 -39.35256836 41.78538086 -39.01904297 41.15966797 C-15.27602985 -3.05520597 -15.27602985 -3.05520597 0 0 Z " fill="black" transform="translate(747,444)"/>
      <path d="M0 0 C1.48608663 1.87716205 2.85774712 3.74674677 4.03125 5.8359375 C7.78097915 12.44863553 12.39081576 16.58210619 19.5 19.375 C20.325 19.58125 21.15 19.7875 22 20 C21.42844311 24.58111511 19.49301857 28.06260639 17.125 31.9375 C16.53259521 32.91505249 16.53259521 32.91505249 15.92822266 33.91235352 C9.65848319 44.01874467 1.99339112 53.21545413 -6 62 C-8.375 61.375 -8.375 61.375 -11 60 C-16.65225882 47.12756125 -12.74015355 30.06392821 -8.04150391 17.42089844 C-1.96419721 1.96419721 -1.96419721 1.96419721 0 0 Z " fill="black" transform="translate(304,481)"/>
      <path d="M0 0 C2.25 0.9375 2.25 0.9375 4.25 3.9375 C4.36704934 6.50658301 4.35011691 8.88337291 4.1875 11.4375 C4.14222168 12.17637451 4.09694336 12.91524902 4.05029297 13.67651367 C3.5687703 19.68926079 2.39640487 25.41935826 0.875 31.25 C0.56163696 32.45849609 0.56163696 32.45849609 0.24194336 33.69140625 C-0.86692579 37.66862354 -1.89664896 40.82551188 -4.75 43.9375 C-9.17864971 43.4313686 -11.59889946 42.08860054 -14.75 38.9375 C-18.99455322 31.32657698 -18.32992648 25.42159885 -16.0625 17.375 C-13.80310211 10.52545694 -11.36644012 6.11786677 -5.75 1.4375 C-2.75 -0.0625 -2.75 -0.0625 0 0 Z " fill="black" transform="translate(336.75,442.0625)"/>
    </mask>
  </defs>

<rect x="0" y="0" width="1024" height="1024" fill="#FDFDFD" mask="url(#textMask)" />
</svg>